<svg width="108" height="185" viewBox="0 0 108 185" fill="none" xmlns="http://www.w3.org/2000/svg">
<g clip-path="url(#clip0_72_2617)">
<path d="M58.1453 183.989C58.1453 181.43 58.0732 178.979 58.2174 176.527C58.2534 176.131 59.0465 175.554 59.5151 175.482C75.9891 173.139 87.957 164.415 95.2388 149.599C99.3843 141.2 100.574 132.224 99.0238 122.816C97.5458 113.984 94.7701 105.585 91.5618 97.2577C86.5872 84.4606 80.2788 72.3124 73.7901 60.2724C70.9063 54.9372 67.7341 49.7463 64.67 44.5194C62.2548 40.4099 59.8756 36.3004 57.3883 32.227C55.7301 29.5234 53.9637 26.9279 52.2334 24.2964C51.9811 23.9359 51.5485 23.6836 51.0799 23.287C50.0345 26.243 49.1693 29.0908 48.0518 31.8304C45.7808 37.3097 43.6179 42.8611 40.9143 48.1602C35.5792 58.6141 29.6673 68.7437 24.5124 79.2336C20.5111 87.3805 16.9063 95.8157 13.7341 104.323C10.3816 113.263 7.96639 122.491 8.47106 132.188C9.19202 146.535 15.4644 158.035 26.7835 166.758C32.5512 171.228 39.2201 173.752 46.2855 175.266C46.3936 175.302 46.5378 175.302 46.646 175.302C49.8542 175.734 49.8542 175.734 49.8542 178.979C49.8542 180.601 49.8542 182.187 49.8542 183.881C48.917 183.881 48.2321 183.989 47.5472 183.881C40.0852 182.692 32.9477 180.529 26.423 176.563C18.168 171.589 11.6793 164.956 6.95704 156.593C4.14529 151.618 2.1266 146.355 1.08121 140.732C-0.360716 133.198 -0.180475 125.7 1.2975 118.202C3.49643 106.991 7.49776 96.4286 12.1119 86.0467C17.5191 73.8625 23.9357 62.1829 30.3883 50.5033C35.2908 41.6716 39.3282 32.4433 42.5365 22.8545C44.6633 16.51 44.9517 9.94926 45.204 3.35247C45.2401 2.37917 45.3122 1.44192 45.3843 0.468625C45.3843 0.360481 45.5285 0.288384 45.7087 0C47.5111 2.55941 49.3135 5.04673 51.0078 7.60614C54.7568 13.1936 58.4337 18.8171 62.1827 24.4045C70.1853 36.3004 77.2147 48.773 83.8836 61.4619C88.2454 69.8251 92.5712 78.2243 96.2841 86.8398C99.6727 94.6982 102.484 102.845 105.044 111.028C107.279 118.129 108.432 125.519 107.964 133.017C106.954 148.878 100.285 161.892 88.1012 172.057C82.9824 176.347 77.2147 179.555 70.8342 181.502C67.3015 182.583 63.6246 183.196 60.0198 183.989C59.443 184.097 58.9023 183.989 58.1453 183.989Z" fill="white"/>
<path d="M49.782 165.965C47.2586 165.353 44.9516 164.992 42.7887 164.271C33.7406 161.243 26.8915 155.475 22.3494 147.148C18.6004 140.227 17.4108 132.729 18.4923 124.871C19.7179 115.931 22.6378 107.495 26.0624 99.2043C33.1278 81.9734 42.1759 65.7878 52.017 49.9987C52.5938 49.0615 53.1705 48.0882 53.9275 46.7544C55.2974 48.9533 56.559 50.8639 57.6765 52.8465C62.6151 61.5341 67.6618 70.1496 72.4202 78.9453C77.6472 88.6423 82.1171 98.6997 85.6498 109.154C87.7046 115.174 89.3988 121.302 89.6512 127.682C90.264 142.57 84.2439 154.069 71.1946 161.423C67.806 163.334 63.8768 164.235 60.1638 165.533C59.6231 165.713 58.9743 165.641 58.1452 165.677C58.1452 163.082 58.1091 160.558 58.1812 158.071C58.1812 157.71 58.794 157.134 59.1905 157.061C67.2653 155.511 73.3574 151.077 77.539 144.12C81.3601 137.74 82.2613 130.855 80.7833 123.537C78.5844 112.686 74.6552 102.485 69.7887 92.6075C64.8861 82.6583 59.6231 72.8532 54.3962 62.6516C53.7833 63.3005 53.531 63.4807 53.3868 63.733C48.8087 72.1683 44.0504 80.4954 39.7246 89.0388C35.1825 97.9787 31.3975 107.279 28.6578 116.94C27.6485 120.545 26.8194 124.294 26.6031 128.043C25.9542 138.28 29.9556 146.499 38.2106 152.592C41.3107 154.863 44.8074 156.377 48.6285 157.061C49.061 157.134 49.746 157.746 49.746 158.143C49.8541 160.594 49.782 163.045 49.782 165.965Z" fill="white"/>
<path d="M58.1812 147.004C58.1812 144.625 58.037 142.246 58.2533 139.902C58.3254 139.073 59.2626 138.244 59.9836 137.595C63.6244 134.135 63.6244 129.917 62.6511 125.483C60.8487 117.3 57.6044 109.622 53.9996 101.547C52.9902 103.782 52.0169 105.549 51.332 107.459C49.5296 112.326 47.6912 117.192 46.1772 122.131C45.3841 124.726 45.0236 127.502 44.8073 130.206C44.555 133.378 46.1772 135.721 48.5924 137.704C49.2412 138.208 49.7099 139.218 49.782 140.047C49.9262 142.354 49.8541 144.697 49.8541 147.328C46.4295 146.463 43.7259 144.913 41.4549 142.57C36.6605 137.523 35.4709 131.575 36.9128 124.87C39.1478 114.489 43.1852 104.792 47.7633 95.275C49.6738 91.3097 51.5844 87.3444 53.531 83.3791C53.6031 83.2349 53.8193 83.1989 54.1798 82.9465C55.3694 85.2536 56.559 87.4525 57.6404 89.7596C60.0557 94.8784 62.5069 99.9973 64.7059 105.188C67.9141 112.686 70.5457 120.364 71.6631 128.475C72.7085 136.334 66.0036 145.922 58.1812 147.004Z" fill="white"/>
</g>
<defs>
<clipPath id="clip0_72_2617">
<rect width="108" height="184.025" fill="white"/>
</clipPath>
</defs>
</svg>
