<svg width="20" height="18" viewBox="0 0 20 18" fill="none" xmlns="http://www.w3.org/2000/svg">
<path d="M20 2.79163C19.25 3.12496 18.4583 3.33329 17.625 3.45829C18.4583 2.95829 19.125 2.16663 19.4167 1.20829C18.625 1.66663 17.75 1.99996 16.7917 2.20829C16.0417 1.41663 14.9583 0.916626 13.7917 0.916626C11.5417 0.916626 9.70833 2.74996 9.70833 4.99996C9.70833 5.33329 9.75 5.62496 9.83333 5.91663C6.45833 5.74996 3.41667 4.12496 1.375 1.62496C1.04167 2.24996 0.833333 2.91663 0.833333 3.66663C0.833333 5.08329 1.54167 6.33329 2.66667 7.08329C2 7.04163 1.375 6.87496 0.791667 6.58329V6.62496C0.791667 8.62496 2.20833 10.2916 4.08333 10.6666C3.75 10.75 3.375 10.7916 3 10.7916C2.75 10.7916 2.45833 10.75 2.20833 10.7083C2.75 12.3333 4.25 13.5416 6.04167 13.5416C4.625 14.625 2.875 15.2916 0.958333 15.2916C0.625 15.2916 0.291667 15.2916 0 15.25C1.83333 16.4166 3.95833 17.0833 6.29167 17.0833C13.8333 17.0833 17.9583 10.8333 17.9583 5.41663C17.9583 5.24996 17.9583 5.04163 17.9583 4.87496C18.75 4.33329 19.4583 3.62496 20 2.79163Z" fill="white"/>
</svg>
